HIERARCHY
ROOT Hips
{
	OFFSET 49.079399 -7.259506 95.639099
	CHANNELS 6 Xposition Yposition Zposition Xrotation Yrotation Zrotation
	JOINT spine
	{
		OFFSET 0.000000 -0.467660 8.132492
		CHANNELS 3 Xrotation Yrotation Zrotation
		JOINT spine1
		{
			OFFSET 0.000000 -0.000002 10.349800
			CHANNELS 3 Xrotation Yrotation Zrotation
			JOINT spine2
			{
				OFFSET 0.000000 -0.000001 9.916992
				CHANNELS 3 Xrotation Yrotation Zrotation
				JOINT Neck
				{
					OFFSET 0.000000 -1.213904 25.461006
					CHANNELS 3 Xrotation Yrotation Zrotation
					JOINT Head
					{
						OFFSET 0.000000 -0.000001 7.692444
						CHANNELS 3 Xrotation Yrotation Zrotation
						End Site
						{
							OFFSET 0.000000 6.140627 18.619995
						}
					}
				}
				JOINT RightShoulder
				{
					OFFSET -4.175751 0.581443 10.709602
					CHANNELS 3 Xrotation Yrotation Zrotation
					JOINT RightArm
					{
						OFFSET 0.000000 -0.000002 14.046600
						CHANNELS 3 Xrotation Yrotation Zrotation
						JOINT RightArmRoll
						{
							OFFSET 0.000000 -0.000001 7.090973
							CHANNELS 3 Xrotation Yrotation Zrotation
							JOINT RightForeArm
							{
								OFFSET 0.000000 -0.000003 20.653503
								CHANNELS 3 Xrotation Yrotation Zrotation
								JOINT RightForeArmRoll
								{
									OFFSET 0.000000 -0.000001 7.957184
									CHANNELS 3 Xrotation Yrotation Zrotation
									JOINT RightHand
									{
										OFFSET 0.000000 -0.000002 15.968292
										CHANNELS 3 Xrotation Yrotation Zrotation
										End Site
										{
											OFFSET 0.000000 -0.000000 0.100006
										}
									}
								}
							}
						}
					}
				}
				JOINT LeftShoulder
				{
					OFFSET 4.175751 0.581443 10.709602
					CHANNELS 3 Xrotation Yrotation Zrotation
					JOINT LeftArm
					{
						OFFSET 0.000000 -0.000002 14.046600
						CHANNELS 3 Xrotation Yrotation Zrotation
						JOINT LeftArmRoll
						{
							OFFSET 0.000000 -0.000001 7.090973
							CHANNELS 3 Xrotation Yrotation Zrotation
							JOINT LeftForeArm
							{
								OFFSET 0.000000 -0.000003 20.653503
								CHANNELS 3 Xrotation Yrotation Zrotation
								JOINT LeftForeArmRoll
								{
									OFFSET 0.000000 -0.000001 7.957184
									CHANNELS 3 Xrotation Yrotation Zrotation
									JOINT LeftHand
									{
										OFFSET 0.000000 -0.000002 15.968292
										CHANNELS 3 Xrotation Yrotation Zrotation
										End Site
										{
											OFFSET 0.000000 -0.000000 0.100006
										}
									}
								}
							}
						}
					}
				}
			}
		}
	}
	JOINT RightUpLeg
	{
		OFFSET -7.208340 1.108840 -1.321823
		CHANNELS 3 Xrotation Yrotation Zrotation
		JOINT RightUpLegRoll
		{
			OFFSET 0.000000 -0.000003 18.723801
			CHANNELS 3 Xrotation Yrotation Zrotation
			JOINT RightLeg
			{
				OFFSET 0.000000 0.000004 -23.186600
				CHANNELS 3 Xrotation Yrotation Zrotation
				JOINT RightLegRoll
				{
					OFFSET 0.000000 -0.000004 23.262398
					CHANNELS 3 Xrotation Yrotation Zrotation
					JOINT RightFoot
					{
						OFFSET 0.000000 -0.000003 19.362099
						CHANNELS 3 Xrotation Yrotation Zrotation
						JOINT RightToeBase
						{
							OFFSET 0.000000 -0.000003 16.185699
							CHANNELS 3 Xrotation Yrotation Zrotation
							End Site
							{
								OFFSET 0.006859 0.903521 7.838623
							}
						}
					}
				}
			}
		}
	}
	JOINT LeftUpLeg
	{
		OFFSET 7.208340 1.108840 -1.321823
		CHANNELS 3 Xrotation Yrotation Zrotation
		JOINT LeftUpLegRoll
		{
			OFFSET 0.000000 -0.000003 18.723900
			CHANNELS 3 Xrotation Yrotation Zrotation
			JOINT LeftLeg
			{
				OFFSET 0.000000 -0.000004 23.186501
				CHANNELS 3 Xrotation Yrotation Zrotation
				JOINT LeftLegRoll
				{
					OFFSET 0.000000 -0.000004 23.477493
					CHANNELS 3 Xrotation Yrotation Zrotation
					JOINT LeftFoot
					{
						OFFSET 0.000000 -0.000003 19.147003
						CHANNELS 3 Xrotation Yrotation Zrotation
						JOINT LeftToeBase
						{
							OFFSET 0.000000 -0.000003 16.185699
							CHANNELS 3 Xrotation Yrotation Zrotation
							End Site
							{
								OFFSET -0.030746 0.903521 7.838623
							}
						}
					}
				}
			}
		}
	}
}
MOTION
Frames: 8
Frame Time: 0.041667
47.979103 -8.408728 95.621483 -4.424386 -1.710372 18.416478 -0.527170 -0.295545 -0.438849 2.946337 -0.591245 -0.877427 4.591363 -0.601712 -0.870275 20.092397 2.865204 -8.766781 0.317881 9.971977 -9.801745 -17.465497 -51.730955 -20.570341 -89.519560 -156.964427 -98.004691 -0.000005 -0.000044 -0.000009 84.110672 -3.110644 -2.069446 -0.000002 0.000006 -3.001519 -5.000236 -7.998844 0.000106 -2.410439 55.087398 2.434182 -82.886907 161.978742 112.977039 0.000001 0.000003 0.000003 66.514786 2.478905 -0.276454 0.000003 -0.000005 3.000043 -5.000227 7.998841 -0.000102 -9.219512 -173.192233 2.401778 -179.999991 0.000006 -0.799003 169.742768 -2.239667 -0.621186 0.000003 0.000001 0.024187 66.082210 5.421586 5.854451 25.456928 -7.353648 0.000002 5.496649 178.189363 -0.337919 -0.000005 0.000011 -1.219330 -14.871769 1.831634 0.623936 0.000001 0.000001 -0.486582 77.634088 -6.630005 -2.250945 26.590674 7.341563 -1.179822 
47.960899 -8.408045 95.629494 -4.462379 -1.673703 18.312005 -0.532769 -0.294197 -0.453837 2.935055 -0.588521 -0.907423 4.580080 -0.599348 -0.900300 20.168500 2.590413 -8.690925 0.235864 10.292216 -9.754371 -17.774686 -52.055204 -20.956506 -89.633611 -156.568495 -98.617345 -0.000002 -0.000046 -0.000010 84.916361 -2.987106 -2.246835 -0.000000 0.000005 -3.001500 -5.000235 -7.998836 0.000104 -2.051913 54.927613 1.984494 -83.057197 162.385535 112.649320 -0.000001 0.000001 0.000009 65.596549 2.743515 -0.406015 0.000004 -0.000007 3.000032 -5.000227 7.998842 -0.000106 -9.193062 -173.242093 2.384352 -179.999991 0.000005 -0.800997 169.774023 -2.237911 -0.619609 0.000004 0.000001 0.024005 66.066139 5.426652 5.841921 25.456930 -7.353648 0.000002 5.536467 178.160621 -0.375284 -0.000005 0.000011 -1.219269 -14.891303 1.845791 0.626277 0.000001 0.000001 -0.486714 77.661020 -6.629074 -2.251467 26.610277 7.341466 -1.172235 
47.990601 -8.414209 95.647896 -4.499836 -1.631907 18.208786 -0.538639 -0.293541 -0.469455 2.923223 -0.587180 -0.938673 4.568250 -0.598381 -0.931572 20.239801 2.319290 -8.611573 0.158930 10.612361 -9.703927 -18.081847 -52.368645 -21.338563 -89.743952 -156.167494 -99.219638 -0.000003 -0.000044 -0.000010 85.716197 -2.857819 -2.431604 -0.000004 0.000007 -3.001489 -5.000234 -7.998840 0.000105 -1.701880 54.754686 1.542314 -83.217454 162.797422 112.301813 0.000002 -0.000000 0.000007 64.655493 3.001955 -0.524337 0.000001 -0.000009 3.000028 -5.000226 7.998840 -0.000107 -9.166424 -173.298879 2.363186 -179.999991 0.000005 -0.803006 169.808270 -2.234213 -0.616553 0.000003 0.000001 0.023733 66.049712 5.431960 5.828663 25.456930 -7.353647 0.000002 5.572685 178.122905 -0.418252 -0.000005 0.000011 -1.219018 -14.914843 1.860888 0.628851 0.000001 0.000001 -0.486870 77.691701 -6.628123 -2.251771 26.627033 7.341390 -1.165064 
47.995098 -8.413600 95.639587 -4.536783 -1.584443 18.106691 -0.544822 -0.293716 -0.485763 2.910763 -0.587493 -0.971318 4.555778 -0.599085 -0.964205 20.305915 2.053550 -8.528482 0.087588 10.931286 -9.650097 -18.385546 -52.669085 -21.714478 -89.848297 -155.760743 -99.808721 -0.000003 -0.000044 -0.000013 86.509571 -2.722493 -2.623668 -0.000003 0.000006 -3.001479 -5.000233 -7.998843 0.000103 -1.361317 54.567853 1.108601 -83.367056 163.214146 111.932894 0.000000 0.000001 0.000007 63.690025 3.253158 -0.631082 0.000000 -0.000006 3.000030 -5.000224 7.998841 -0.000106 -9.139595 -173.363561 2.337877 -179.999991 0.000005 -0.804004 169.845822 -2.230549 -0.614386 0.000003 0.000001 0.023363 66.032739 5.437559 5.814796 25.456928 -7.353646 0.000002 5.604920 178.078222 -0.467163 -0.000005 0.000011 -1.218550 -14.943103 1.877031 0.631703 0.000001 0.000001 -0.487057 77.726426 -6.627220 -2.251936 26.640775 7.341310 -1.158492 
48.011501 -8.413536 95.613579 -4.573296 -1.530444 18.005798 -0.551459 -0.294692 -0.502739 2.897393 -0.589404 -1.005302 4.542400 -0.601404 -0.998163 20.369470 1.789266 -8.441859 0.019656 11.251800 -9.593183 -18.686400 -52.959993 -22.085350 -89.949001 -155.347148 -100.388556 -0.000004 -0.000045 -0.000010 87.299885 -2.581570 -2.825351 -0.000003 0.000006 -3.001461 -5.000233 -7.998838 0.000106 -1.029635 54.366113 0.682943 -83.510203 163.640158 111.549748 -0.000002 0.000002 0.000005 62.697988 3.503087 -0.732310 0.000006 -0.000009 3.000029 -5.000226 7.998842 -0.000105 -9.112099 -173.437136 2.307914 -179.999991 0.000005 -0.805998 169.887801 -2.223942 -0.611524 0.000003 0.000001 0.022884 66.014550 5.443287 5.800518 25.456931 -7.353648 0.000002 5.632729 178.023580 -0.523203 -0.000005 0.000011 -1.217848 -14.976873 1.894425 0.634887 0.000003 0.000001 -0.487291 77.766075 -6.626320 -2.251820 26.651675 7.341216 -1.152163 
48.030399 -8.402010 95.617889 -4.609381 -1.469943 17.906101 -0.558596 -0.296291 -0.520292 2.883004 -0.592553 -1.040428 4.528012 -0.604973 -1.033260 20.432922 1.521572 -8.352186 -0.047028 11.577300 -9.533811 -18.987038 -53.246218 -22.454653 -90.050614 -154.926244 -100.965858 -0.000001 -0.000045 -0.000009 88.090582 -2.436256 -3.039399 -0.000000 0.000004 -3.001451 -5.000234 -7.998841 0.000105 -0.705605 54.150132 0.264362 -83.651868 164.078083 111.162654 -0.000001 0.000002 0.000007 61.679320 3.757534 -0.832587 0.000000 -0.000007 3.000027 -5.000224 7.998841 -0.000105 -9.083579 -173.519590 2.273409 -179.999991 0.000005 -0.808008 169.934888 -2.217380 -0.608474 0.000003 0.000001 0.022304 65.994736 5.449107 5.786042 25.456928 -7.353646 0.000002 5.656219 177.958967 -0.586422 -0.000005 0.000011 -1.216923 -15.015963 1.913098 0.638397 -0.000001 0.000001 -0.487580 77.810560 -6.625445 -2.251521 26.660464 7.341124 -1.145666 
47.998302 -8.420639 95.607491 -4.645026 -1.403695 17.807563 -0.566151 -0.298421 -0.538388 2.867785 -0.596757 -1.076646 4.512775 -0.609610 -1.069429 20.495198 1.250778 -8.259630 -0.111964 11.907076 -9.472218 -19.288292 -53.528254 -22.823284 -90.153914 -154.498934 -101.541130 -0.000002 -0.000044 -0.000010 88.881156 -2.287015 -3.265327 -0.000001 0.000005 -3.001441 -5.000234 -7.998844 0.000104 -0.389162 53.920768 -0.147179 -83.791497 164.526580 110.769119 0.000000 0.000003 0.000005 60.635763 4.015032 -0.929417 0.000002 -0.000007 3.000031 -5.000225 7.998840 -0.000104 -9.054235 -173.609953 2.234867 -179.999991 0.000005 -0.810000 169.986388 -2.208867 -0.604920 0.000003 0.000001 0.021631 65.973514 5.455015 5.771258 25.456926 -7.353648 0.000002 5.675822 177.886389 -0.655886 -0.000005 0.000011 -1.215779 -15.059768 1.932880 0.642207 0.000000 0.000001 -0.487916 77.859300 -6.624584 -2.250975 26.667326 7.341028 -1.139023 
48.029301 -8.438948 95.605904 -4.680207 -1.332454 17.710324 -0.574037 -0.300993 -0.556980 2.851887 -0.601833 -1.113880 4.496879 -0.615131 -1.106585 20.555821 0.977178 -8.164403 -0.174631 12.240846 -9.408634 -19.590340 -53.806280 -23.191600 -90.259789 -154.066009 -102.115331 -0.000002 -0.000044 -0.000010 89.670979 -2.134502 -3.502727 -0.000001 0.000007 -3.001417 -5.000234 -7.998842 0.000105 -0.080222 53.679263 -0.551725 -83.929146 164.983957 110.368760 -0.000001 0.000000 0.000007 59.568962 4.273983 -1.020521 0.000001 -0.000003 3.000033 -5.000221 7.998841 -0.000105 -9.024285 -173.706232 2.192620 -179.999991 0.000005 -0.811996 170.041548 -2.199392 -0.601063 0.000004 0.000001 0.020875 65.951180 5.461037 5.756355 25.456931 -7.353647 0.000002 5.691994 177.805861 -0.730856 -0.000005 0.000011 -1.214460 -15.107586 1.953629 0.646279 -0.000000 0.000002 -0.488298 77.911538 -6.623747 -2.250333 26.672577 7.340919 -1.132284 
